# xmcd
#
# Track frame offsets:
#	150
#	14260
#	27962
#	41302
#	54637
#	67955
#	80055
#	93315
#	105185
#	118412
#	132225
#	146172
#	157707
#	171215
#	184312
#	196837
#	208112
#	220135
#	232427
#	247280
#
# Disc length: 3487 seconds
#
# Revision: 0
# Processed by: cddbd v1.5.2PL0 Copyright (c) Steve Scherf et al.
# Submitted via: EasyCDDAExtractor 16.0.6.1
#
DISCID=230d9d14
DTITLE=Σακελλαρίου Ρίτα - Η ιστορία μου-Ρ. Σακελλαρίου 1
DYEAR=1994
DGENRE=Λαϊκή
TTITLE0=Ιστορία μου [1972, Γ. Μανισαλής-Κ. Ψυχογιός]
TTITLE1=Να πεθάνεις να γλιτώσω [1970, Γ. Μανισαλής-Γ. Γιαννακόπουλος]
TTITLE2=Ο παραμυθατζής [1970, Γ. Μανισαλής-Κ. Ψυχογιός]
TTITLE3=Παράνομή μου αγάπη [1970, Γ. Μανισαλής-Κ. Ψυχογιός]
TTITLE4=Τελευταία ώρα [1970, Γ. Μανισαλής-Κ. Ψυχογιός]
TTITLE5=Αν κάνω άτακτη ζωή [1972, Γ. Μανισαλής-Κ. Ψυχογιός]
TTITLE6=Ας εύρισκα έναν άνθρωπο [1970, Γ. Μανισαλής-Κ. Ψυχογιός]
TTITLE7=Οι κακόγλωσσες [1972, Γ. Μανισαλής-Κ. Ψυχογιός]
TTITLE8=Ο φιγουρατζής [1972, Γ. Μανισαλής-Κ. Ψυχογιός]
TTITLE9=Ξύπνια ντερμπεντέρισσα 1972, Γ. Μανισαλής-Θαν. Παπουτσής]
TTITLE10=Κάθε ηλιοβασίλεμα [1970, Γ. Μανισαλής-Κ. Ψυχογιός]
TTITLE11=Με είπες αφιλότιμη [1972, Γ. Μανισαλής-Κ. Ψυχογιός]
TTITLE12=Όλα τα καταλαβαίνω [1973, Γ. Μανισαλής-Θαν. Παπουτσής-Φ. Ζησούλης]
TTITLE13=Ο καλύτερος άνθρωπος [1977, Τάκης Μουσαφίρης]
TTITLE14=Μιά φορά στις 10 μέρες [1972, Γ. Μανισαλής-Κ. Ψυχογιός]
TTITLE15=Είναι αλήθεια [1977, Σπ. Παπαβασιλείου-Μάρω Μπιζάνη]
TTITLE16=Οι χάντρες [1974, Νάκης Πετρίδης-Θάνος Σοφός]
TTITLE17=Θέλω να κάνω ταραχή [1979, Αλέκος Χρυσοβέργης-Μάρω Μπιζάνη]
TTITLE18=Γόρδιος δεσμός [1984, Σταμ. Καλλιανός-Δημ. Ιατρόπουλος]
TTITLE19=Μέσ' στης Πόλης το χαμάμ 1976, Γ. Μανισαλής-Φώτης Ζησούλης]
EXTD=
EXTT0=
EXTT1=
EXTT2=
EXTT3=
EXTT4=
EXTT5=
EXTT6=
EXTT7=
EXTT8=
EXTT9=
EXTT10=
EXTT11=
EXTT12=
EXTT13=
EXTT14=
EXTT15=
EXTT16=
EXTT17=
EXTT18=
EXTT19=
PLAYORDER=
